# xmcd
#
# Track frame offsets: 
#        150
#        17777
#        36552
#        51432
#        64147
#        78720
#        99175
#        114692
#        136642
#
# Disc length: 1998 seconds
#
# Revision: 3
# Processed by: cddbd v1.5.2PL0 Copyright (c) Steve Scherf et al.
# Submitted via: ExactAudioCopy v0.99pb3
#
DISCID=7907cc09
DTITLE=Various Artist - Curtis Mayfield - Curtis In Chicago
DYEAR=1973
DGENRE=Soul
TTITLE0=Curtis Mayfield - Superfly
TTITLE1=Curtis Mayfield, Jerry Butler and The Impressions - For Your Pre
TTITLE1=cious Love
TTITLE2=Curtis Mayfield, Fred Cash, Sam Gooden (The Impressions) - I'
TTITLE2=m So Proud
TTITLE3=The Impressions (New) - For Once In My Life
TTITLE4=The Impressions (New) - Preacher Man
TTITLE5=Curtis Mayfield - If I Were A Child Again
TTITLE6=Gene Chandler - Duke Of Earl
TTITLE7=Leroy Hudson - Love Oh Love
TTITLE8=Curtis Mayfield, Gene Chandler, Leroy Hutson, The Impressions 
TTITLE8=& Guests - Amen
EXTD=YEAR: 1973
EXTT0=
EXTT1=
EXTT2=
EXTT3=
EXTT4=
EXTT5=
EXTT6=
EXTT7=
EXTT8=
PLAYORDER=
